<?xml version="1.0" standalone="no"?>
<!DOCTYPE svg PUBLIC "-//W3C//DTD SVG 20010904//EN"
 "http://www.w3.org/TR/2001/REC-SVG-20010904/DTD/svg10.dtd">
<svg version="1.0" xmlns="http://www.w3.org/2000/svg"
 width="500.000000pt" height="500.000000pt" viewBox="0 0 500.000000 500.000000"
 preserveAspectRatio="xMidYMid meet">
<metadata>
Created by potrace 1.14, written by Peter Selinger 2001-2017
</metadata>
<g transform="translate(0.000000,500.000000) scale(0.100000,-0.100000)"
fill="#000000" stroke="none">
<path d="M1402 4407 l-272 -272 0 -1908 0 -1907 286 0 286 0 274 274 275 274
0 536 0 535 266 0 266 0 276 278 277 278 -2 270 c-1 149 -2 276 -3 283 -1 9
-116 12 -541 12 l-539 0 2 248 2 247 55 2 c30 0 58 2 63 3 9 3 55 3 65 0 4 -1
32 -1 62 -1 30 1 60 1 65 1 6 0 72 -1 148 -2 75 -2 137 -1 137 2 0 4 61 4 68
0 3 -2 111 -2 120 0 4 1 12 1 17 0 10 -2 209 -3 249 -1 10 1 141 124 292 274
l274 274 0 286 0 287 -1098 0 -1097 0 -273 -273z"/>
</g>
</svg>
